<svg id="Layer_1" data-name="Layer 1" xmlns="http://www.w3.org/2000/svg" viewBox="0 0 462.12 499.83"><path d="M864.27,578.59c33.32-35.24,88.1-44.33,131-21.25C1016.85,569,1032,587.62,1039.44,611a94.25,94.25,0,0,1,4.75,33.15c-.41,8.41-2.21,21.44-10.57,25.81a8,8,0,0,1-8.4-.36c-4.22-2.54-6-7.24-8.27-11.39a411.53,411.53,0,0,0-27.33-43.37c-5.35-7.47-17.85-.28-12.44,7.27a408.29,408.29,0,0,1,27.33,43.37c5.42,10,12.41,19.77,25,19.89,13,.11,21.66-10.78,25.64-22,4.29-12.16,4.08-25.68,2.25-38.28-4-27.62-18.1-53.9-40.46-70.83-22.1-16.73-50.31-25-77.94-24a123.43,123.43,0,0,0-85,38.18c-6.37,6.73,3.8,16.93,10.18,10.18Z" transform="translate(-728.8 -351.07)"/><path d="M964.38,694.5c.91-14.52-1.5-29.92-5.68-43.76-8.4-27.83-27.13-50.74-55.06-60.46-22.86-7.95-48-6.28-71.38-1.72-9.08,1.77-5.24,15.65,3.83,13.88,32.69-6.37,69.55-4.84,92.26,21,7.07,8.07,12.63,19.06,15.89,29.24a123.14,123.14,0,0,1,3.85,15.5c.2,1.1.39,2.21.57,3.32s.46,3.31.31,2.06c.25,2.1.48,4.19.66,6.3a103.12,103.12,0,0,1,.35,14.6c-.58,9.25,13.82,9.22,14.4,0Z" transform="translate(-728.8 -351.07)"/><path d="M888.12,673.59c-6.5-30.2-28.79-60.59-61.43-63.36-16.48-1.4-32.79,4.52-47.15,12-8.21,4.31-.94,16.74,7.27,12.44,11.28-5.92,23.7-10.57,36.61-10.27a42.06,42.06,0,0,1,24.37,8.39c11,8,19.22,22.66,23.48,34.65a78,78,0,0,1,3,9.92c1.95,9.06,15.84,5.23,13.89-3.82Z" transform="translate(-728.8 -351.07)"/><path d="M819.12,689.41c2-11.54-1.91-24.2-10.62-32.16C799.39,648.94,787,646,775,645.34a45.46,45.46,0,0,0-33.45,11.92,48.3,48.3,0,0,0-12.2,17.85c-3.32,8.66,10.6,12.41,13.89,3.83.26-.68-1,2-.29.69.46-.81.81-1.68,1.26-2.49a36.37,36.37,0,0,1,4.38-6.45c5.53-6.29,12.89-10.55,21.4-11,9.13-.46,20.21,1.16,27.46,6.91,4.53,3.59,6.11,7.18,7.43,12.58.17.67.34,2.08.15.53.07.58.13,1.17.17,1.75.05,1,.09,2,.07,3,0,.68-.15,1.39-.13,2.07,0,1.49.28-1.78.13-.94-1.55,9.06,12.33,12.95,13.89,3.82Z" transform="translate(-728.8 -351.07)"/><path d="M1057.09,589.44c1.74-.35-2.41,0,.49,0,1.92,0,3.79,0,5.7.1,2.24.12-1-.24.38,0,.69.14,1.39.24,2.09.39a39.48,39.48,0,0,1,4.53,1.26c.74.25,1.46.53,2.19.82-2-.8.52.25,1,.49a48.36,48.36,0,0,1,5.11,3c.48.32,1,.66,1.42,1,1.53,1.12-.73-.6.19.15s1.76,1.48,2.6,2.26a52.55,52.55,0,0,1,5.13,5.52,78.77,78.77,0,0,1,8.37,14.16c7.43,16.2,10.06,34.71,11.25,52.32.74,10.86.91,21.28-5.06,30.8a36.1,36.1,0,0,1-5.92,7c-.34.32-.71.61-1.06.92-1.22,1.09,1.27-.93,0,0-.3.22-.6.43-.91.62-7.85,4.89-.63,17.35,7.27,12.44,12.47-7.76,19.29-22.88,20.44-37,1-12-.91-24.77-2.74-36.64a149.4,149.4,0,0,0-7-28.6c-7.49-20.46-21.91-40.87-44.8-44.76a39.44,39.44,0,0,0-14.41-.13c-9.07,1.85-5.23,15.73,3.83,13.88Z" transform="translate(-728.8 -351.07)"/><path d="M1118.09,615.59a59.86,59.86,0,0,1,12.1,13.31c7.55,11.15,10.21,22.89,9.83,36.25-.26,9.23-1.43,19.17-6.53,26.53,0,0-.6.61-1.64,1.77-1.51,1.69.73-.06-1,.75-2.58,1.25.78,0-.63.36-9,2.08-5.2,16,3.83,13.88,9.4-2.16,14.91-13.41,17.33-21.66,6.55-22.34,3.66-48-10.08-67-3.76-5.2-8-10.4-13.07-14.4-3.08-2.43-7.17-2.95-10.18,0-2.53,2.47-3,7.78,0,10.18Z" transform="translate(-728.8 -351.07)"/><path d="M1160.62,655.45c5.85,4.66,12.63,10.83,15.36,18,1.4,3.67-.66,5.73-4.41,7.49a30,30,0,0,1-6,1.92c-.91.21-5.17.79-1.76.4-3.89.45-7.16,3-7.2,7.2,0,3.55,3.34,7.65,7.2,7.2,12.15-1.4,27.65-7.91,27.14-22.42-.43-11.93-11.32-22.92-20.12-29.94-3.06-2.44-7.18-2.93-10.18,0-2.54,2.49-3,7.77,0,10.19Z" transform="translate(-728.8 -351.07)"/><path d="M1069.23,665.41c4,14.79,5.6,31.56,1.54,46.86-2.68,10.08-8.46,18.53-19.17,21.7-9,2.67-19.13,2.57-28.45,3.16a220.25,220.25,0,0,1-27.43.38c-6.67-.42-14.25-1.45-19.66-4.39-4.6-2.51-6.68-5.33-7.94-10.53-2.18-9-16.07-5.19-13.89,3.82,3.4,14,15.3,21.48,28.79,24,20.55,3.82,42.7,1.58,63.28-.81,15.17-1.77,28.25-9.74,34.82-23.84,5.63-12.1,6.74-25.88,5.86-39a129.78,129.78,0,0,0-3.86-25.1c-2.4-8.94-16.3-5.15-13.89,3.82Z" transform="translate(-728.8 -351.07)"/><path d="M935.18,725.3q-41.22,2.31-82.5,3.58c-20.86.67-41.74,1.17-62.62,1-8.34,0-16.69-.19-25-.68-6.19-.36-14.66-.41-19.19-4-2.08-1.64-2.46-4-2.16-6.52a31.59,31.59,0,0,1,4-11.3,85.67,85.67,0,0,1,6.07-9.67c.43-.6.88-1.19,1.32-1.79,0,0-.73.91.17-.22.32-.39.64-.79,1-1.18,6-7-4.17-17.26-10.18-10.18-8.47,10-17.88,24-16.72,37.67,1.82,21.31,27.37,21.37,43.6,21.93,42.32,1.45,84.86-.67,127.14-2.57q17.53-.8,35.07-1.74c9.21-.51,9.27-14.92,0-14.4Z" transform="translate(-728.8 -351.07)"/><path d="M1123.55,374.8c12.12,5.38,24.24,11.84,33.45,21.57,5,5.29,7.85,10.37,9.3,16.43.07.29.39,2.23.21,1s0,.3,0,.59c0,.9.06,1.8.06,2.71,0,.32-.08.65-.06,1,.07,1-.38-.11,0-.2-.12,0,.3-1.08,0,0,.93-2.87.42-1.13-.33.25l-3.17,5.8-23.94,43.8-11.71,21.44-4.05,7.41c-.56,1-2,2.78-2.17,4-.22,1.87,2.37-2.8,2.25-2.09,0,.18-2.46,1.17-1,.54,1.17-.52-.69.26-1.07.4-.75.25-1.5.51-2.25.74a48.05,48.05,0,0,1-5.55,1.3c-13.8,2.4-28.69-1.23-41.45-6.69-3.6-1.54-7.68-1.05-9.85,2.58-1.81,3-1,8.32,2.58,9.85,14,6,29.08,10.25,44.47,9.16,6.93-.49,14.88-1.69,21-5.24,3.15-1.82,4.53-5.5,6.21-8.58l10.92-20,26.66-48.8c3.79-6.93,7.61-12.23,6.74-20.39-2.72-25.57-28.86-41.54-50-50.93-3.58-1.59-7.69-1-9.85,2.58-1.83,3.05-1,8.28,2.58,9.85Z" transform="translate(-728.8 -351.07)"/><path d="M1131,362.46c-20.67-8.91-48-17.59-69.26-5.31-3.49,2-7.47,4.92-9.56,8.51-1.64,2.83-2.38,6.54-3.41,9.61l-17.36,51.54-7.94,23.6c-1.28,3.8-3.7,8.36-2.91,12.47,1.15,5.94,5,11.91,8.55,16.65,9.56,12.75,22.85,21.85,37.3,28.3,3.58,1.6,7.7,1,9.85-2.58,1.83-3.06,1-8.27-2.58-9.85-12.47-5.57-24.72-13.07-33-24.24a50.76,50.76,0,0,1-3.43-5.36c-.43-.76-.81-1.54-1.21-2.31-.19-.36-1.18-2.71-.38-.73a23.61,23.61,0,0,1-1.26-3.72v3.82l20.58-61.12c3.21-9.55,6.56-19.06,9.64-28.64a7.08,7.08,0,0,0,.59-1.75c0-.73-1.09,2.46-.57,1.47-.14.27-1.54,1.6-.37.53.83-.75,1.58-1.58,2.43-2.33-1,.92-.07,0,.92-.61s1.86-1.12,2.84-1.64c4.14-2.19,11.71-3.31,18-3.09,12.14.43,24.18,4.45,35.24,9.21,3.6,1.56,7.68,1,9.85-2.58,1.81-3,1-8.31-2.58-9.85Z" transform="translate(-728.8 -351.07)"/><path d="M1137.2,516.28c0,.43,0,.85,0,1.28s-.08.86-.12,1.29c0,.69.34-1.34-.12.61-.37,1.61-.77,3.17-1.28,4.75s.26-.24-.63,1.49c-.46.89-1,1.75-1.46,2.62-.27.45-.58.87-.88,1.3,0,0,.37-.38-.35.43a32.14,32.14,0,0,1-2.59,2.63,33.17,33.17,0,0,1-5.22,3.24c-6.85,2.9-14.37,2.93-21.74,2.12-15.1-1.65-29.89-7.41-43.64-13.56-7-3.13-13.11,7.21-6.06,10.36,26,11.62,84.52,32.36,95.06-10.51a31.72,31.72,0,0,0,1.07-8.05c-.15-7.71-12.15-7.74-12,0Z" transform="translate(-728.8 -351.07)"/><path d="M1004.48,451.4c-4.91,4.16-8.55,10.7-10.11,16.85-3.91,15.4,4.69,29.76,15.66,39.94,12.5,11.59,27.91,19.76,43.3,26.77,7,3.17,13.09-7.17,6.06-10.36-12.75-5.8-25.64-12.3-36.57-21.17-6.21-5-12.3-11-15.56-18.45-3.55-8.11-2.14-14.5,2.56-21.67,1-1.54-.61.51.78-1,.4-.43.79-.87,1.19-1.31a12.49,12.49,0,0,1,1.17-1.13c5.9-5-2.63-13.46-8.48-8.48Z" transform="translate(-728.8 -351.07)"/><path d="M1053.27,458.67c9.26,0,9.28-14.4,0-14.4s-9.28,14.4,0,14.4Z" transform="translate(-728.8 -351.07)"/><path d="M1065.41,469.56a79.67,79.67,0,0,0,52,17.17c9.23-.35,9.28-14.75,0-14.4a64.45,64.45,0,0,1-30.38-6.28,78.32,78.32,0,0,1-9-5.06c-.88-.58-1.73-1.22-2.61-1.8-1.62-1.05,1.07.88.21.19-3-2.47-7.19-2.92-10.18,0-2.56,2.5-3,7.74,0,10.18Z" transform="translate(-728.8 -351.07)"/><path d="M970.93,609c9.27,0,9.28-14.4,0-14.4s-9.28,14.4,0,14.4Z" transform="translate(-728.8 -351.07)"/><path d="M875.6,782.26c-5.49,10.82-14.51,24.89-27.08,27.91-7.51,1.8-4.33,13.38,3.19,11.57C867.4,818,879,802,886,788.32c3.48-6.88-6.87-13-10.36-6.06Z" transform="translate(-728.8 -351.07)"/><path d="M860.45,850.79a58.21,58.21,0,0,0,21.78-9.47c13.8-9.6,21.47-24,22.44-40.7.19-3.24-2.9-6-6-6h-25.4c-7.72,0-7.74,12,0,12h25.4l-6-6c-1.16,19.93-16.61,35.12-35.41,38.59-7.59,1.41-4.38,13,3.19,11.58Z" transform="translate(-728.8 -351.07)"/><path d="M940.3,844.66V785.47l-6,6h50.08l-6-6v59.19c0,7.72,12,7.73,12,0V785.47a6.08,6.08,0,0,0-6-6H934.3a6.08,6.08,0,0,0-6,6v59.19c0,7.72,12,7.73,12,0Z" transform="translate(-728.8 -351.07)"/><path d="M934.3,828.66h50.08c7.72,0,7.73-12,0-12H934.3c-7.73,0-7.74,12,0,12Z" transform="translate(-728.8 -351.07)"/><path d="M1019.28,785.47v59.19c0,7.72,12,7.73,12,0V785.47c0-7.72-12-7.74-12,0Z" transform="translate(-728.8 -351.07)"/><path d="M1021.65,838.32c5-10.67,13.85-24.81,26-27.87,7.24-1.83,14.54,2,16,9.51,1.59,8.25-3.25,15.69-10.31,19.52-6.8,3.68-.74,14,6,10.36,10.69-5.79,17.61-17.3,16.37-29.59a24.25,24.25,0,0,0-22.37-22.14c-19.43-1.75-34.74,18.42-42.06,34.15-3.24,7,7.1,13.06,10.36,6.06Z" transform="translate(-728.8 -351.07)"/><path d="M1016.47,810h12.69c7.72,0,7.73-12,0-12h-12.69c-7.72,0-7.74,12,0,12Z" transform="translate(-728.8 -351.07)"/></svg>