<?xml version="1.0" standalone="no"?>
<!DOCTYPE svg PUBLIC "-//W3C//DTD SVG 20010904//EN"
 "http://www.w3.org/TR/2001/REC-SVG-20010904/DTD/svg10.dtd">
<svg version="1.0" xmlns="http://www.w3.org/2000/svg"
 width="512.000000pt" height="512.000000pt" viewBox="0 0 512.000000 512.000000"
 preserveAspectRatio="xMidYMid meet">

<g transform="translate(0.000000,512.000000) scale(0.100000,-0.100000)"
fill="#ffffff" stroke="none">
<path d="M2375 5114 c-377 -38 -652 -115 -954 -265 -701 -348 -1210 -1004
-1365 -1761 -41 -198 -50 -300 -50 -528 0 -228 9 -329 50 -530 141 -689 583
-1304 1204 -1674 292 -175 632 -291 990 -338 123 -16 497 -16 620 0 758 100
1403 500 1825 1132 289 432 441 973 421 1500 -13 368 -103 719 -267 1050 -94
190 -227 393 -270 416 -39 20 -88 12 -116 -19 -46 -49 -37 -90 41 -200 64 -90
167 -276 217 -393 131 -309 191 -602 191 -934 0 -194 -10 -295 -43 -470 -171
-886 -847 -1602 -1723 -1825 -215 -54 -342 -69 -586 -69 -244 0 -371 15 -586
69 -399 102 -752 299 -1053 590 -960 926 -957 2473 5 3395 373 356 850 580
1369 641 148 17 439 15 575 -5 232 -34 433 -89 630 -174 118 -50 305 -153 395
-217 122 -86 161 -92 211 -32 21 25 25 38 21 69 -3 22 -11 46 -18 54 -19 23
-220 155 -318 208 -251 138 -552 240 -849 287 -122 19 -466 33 -567 23z"/>
<path d="M4251 4386 c-87 -48 -50 -186 49 -186 33 0 71 23 86 51 23 45 17 78
-20 115 -37 37 -73 43 -115 20z"/>
<path d="M1135 3781 c-48 -22 -79 -54 -100 -103 -13 -32 -15 -104 -15 -495 0
-421 2 -461 19 -498 23 -51 79 -101 128 -114 21 -6 131 -11 244 -11 l207 0 -5
-47 c-7 -76 -39 -196 -69 -259 -53 -112 -166 -192 -304 -213 -46 -8 -71 -17
-90 -36 l-25 -25 -3 -290 c-3 -315 -1 -331 53 -360 22 -12 45 -12 138 -3 547
56 893 372 1002 916 40 203 47 332 43 899 l-3 526 -30 44 c-18 25 -49 52 -75
66 -44 22 -45 22 -560 22 -479 0 -518 -2 -555 -19z m1025 -690 c0 -284 -5
-555 -11 -612 -44 -437 -199 -708 -487 -853 -78 -39 -207 -80 -290 -91 l-53
-7 3 162 3 161 66 22 c190 64 319 208 382 427 41 141 60 356 36 403 -29 56
-32 57 -321 57 l-268 0 0 420 0 420 470 0 470 0 0 -509z"/>
<path d="M2775 3781 c-48 -22 -79 -54 -100 -103 -13 -32 -15 -104 -15 -493 0
-497 0 -497 58 -558 56 -59 67 -62 313 -65 l226 -4 -4 -46 c-7 -76 -41 -203
-70 -261 -53 -110 -167 -189 -303 -210 -46 -8 -71 -17 -90 -36 l-25 -25 -3
-290 c-3 -315 -1 -331 53 -360 22 -12 45 -12 138 -3 213 22 393 82 545 183
253 166 405 427 474 815 20 111 22 162 26 710 2 412 0 601 -7 627 -15 50 -57
97 -106 119 -37 17 -77 19 -555 19 -480 0 -518 -2 -555 -19z m1025 -690 c0
-284 -5 -555 -11 -612 -44 -437 -199 -709 -485 -853 -77 -38 -209 -80 -292
-91 l-53 -7 3 162 3 161 66 22 c190 64 319 208 382 427 41 141 60 356 36 403
-29 56 -32 57 -321 57 l-268 0 0 420 0 420 470 0 470 0 0 -509z"/>
</g>
</svg>
