<svg id="svg" xmlns="http://www.w3.org/2000/svg" xmlns:xlink="http://www.w3.org/1999/xlink" width="400" height="400" viewBox="0, 0, 400,400"><g id="svgg"><path id="path0" d="M328.113 1.779 C 298.821 10.673,267.203 51.708,239.188 117.188 C 237.074 122.129,235.052 125.996,234.695 125.781 C 234.337 125.566,231.910 122.946,229.301 119.959 C 194.972 80.645,121.634 69.250,68.146 94.917 C 25.810 115.233,5.169 150.765,14.050 188.039 L 15.410 193.750 11.807 193.753 C 7.483 193.756,3.747 195.818,1.558 199.407 C -0.845 203.349,-0.845 259.151,1.558 263.093 C 3.575 266.400,7.487 268.743,10.998 268.747 L 13.792 268.750 19.859 311.523 C 23.195 335.049,26.443 356.934,27.077 360.156 C 30.385 376.989,42.962 391.472,59.526 397.524 L 65.234 399.609 198.291 399.814 C 317.358 399.996,331.855 399.888,336.181 398.785 C 354.576 394.094,369.294 378.620,372.923 360.156 C 373.557 356.934,376.805 335.049,380.141 311.523 L 386.208 268.750 389.002 268.747 C 392.513 268.743,396.425 266.400,398.442 263.093 C 400.845 259.151,400.845 203.349,398.442 199.407 C 395.397 194.414,393.228 193.756,379.792 193.753 C 368.734 193.750,367.817 193.642,368.170 192.383 C 368.380 191.631,370.562 184.688,373.018 176.953 C 375.475 169.219,380.105 153.750,383.308 142.578 C 402.540 75.496,404.499 52.003,392.753 29.341 C 381.456 7.545,351.370 -5.283,328.113 1.779 M352.313 27.527 C 382.757 38.789,381.364 65.949,344.420 181.445 L 340.484 193.750 290.945 193.750 C 251.834 193.750,241.407 193.544,241.407 192.773 C 241.410 190.811,246.262 173.509,250.177 161.505 L 254.196 149.181 262.450 165.799 C 271.699 184.423,272.419 185.267,279.482 185.761 C 287.477 186.320,293.391 180.484,292.761 172.656 C 292.441 168.682,272.763 125.582,268.470 119.453 C 267.369 117.880,267.679 116.996,273.283 105.761 L 279.273 93.752 289.050 113.058 C 299.844 134.370,300.513 135.202,307.317 135.766 C 312.635 136.207,317.006 134.014,319.439 129.684 C 322.764 123.769,322.342 122.411,308.157 93.347 C 297.709 71.940,295.361 66.536,295.953 65.256 C 296.870 63.273,305.126 51.671,306.999 49.733 C 308.340 48.346,308.660 48.734,316.030 60.671 C 326.587 77.771,327.781 78.906,335.221 78.906 C 342.450 78.906,347.656 73.669,347.656 66.399 C 347.656 62.491,347.218 61.620,336.616 44.466 C 326.914 28.768,327.425 30.090,330.453 28.524 C 337.556 24.851,344.253 24.546,352.313 27.527 M118.753 133.789 C 118.756 166.587,119.528 168.744,131.250 168.744 C 142.969 168.744,143.743 166.580,143.747 133.838 L 143.750 107.129 146.680 107.523 C 151.308 108.144,164.858 110.982,166.898 111.757 L 168.750 112.461 168.753 136.504 C 168.757 166.223,169.734 168.744,181.250 168.744 C 192.191 168.744,193.743 165.470,193.747 142.383 C 193.749 132.393,194.023 124.219,194.357 124.219 C 199.648 124.219,217.318 144.703,221.405 155.576 L 223.174 160.281 220.243 170.655 C 218.630 176.361,216.696 183.892,215.944 187.390 L 214.578 193.750 128.864 193.750 L 43.150 193.750 41.065 188.126 C 34.743 171.069,38.356 154.140,51.748 138.076 C 54.744 134.481,66.880 124.219,68.134 124.219 C 68.473 124.219,68.751 132.393,68.753 142.383 C 68.757 165.470,70.309 168.744,81.250 168.744 C 92.511 168.744,93.274 166.792,93.750 136.755 L 94.141 112.109 101.172 110.344 C 105.039 109.373,110.312 108.274,112.891 107.901 C 115.469 107.529,117.842 107.181,118.164 107.128 C 118.486 107.075,118.751 119.072,118.753 133.789 M375.000 231.250 L 375.000 243.750 200.000 243.750 L 25.000 243.750 25.000 231.250 L 25.000 218.750 200.000 218.750 L 375.000 218.750 375.000 231.250 M359.882 271.289 C 359.635 272.686,359.015 276.904,358.505 280.664 L 357.576 287.500 351.639 287.503 C 342.047 287.508,337.506 291.523,337.506 300.000 C 337.506 307.754,342.169 312.492,349.805 312.497 C 352.061 312.499,353.906 312.656,353.906 312.848 C 353.906 313.039,352.490 322.970,350.760 334.918 C 346.679 363.090,344.847 366.952,332.906 372.551 L 328.516 374.609 200.000 374.609 L 71.484 374.609 67.094 372.551 C 55.312 367.026,53.295 362.890,49.623 336.719 C 48.086 325.762,46.635 315.830,46.399 314.648 C 45.974 312.520,46.008 312.500,50.133 312.497 C 57.835 312.492,62.494 307.781,62.494 300.000 C 62.494 291.529,57.951 287.508,48.377 287.503 L 42.458 287.500 41.484 279.883 C 40.948 275.693,40.322 271.475,40.092 270.508 L 39.674 268.750 200.002 268.750 L 360.330 268.750 359.882 271.289 M80.657 282.808 C 75.793 285.774,75.006 288.169,75.006 300.000 C 75.006 314.608,77.763 318.744,87.500 318.744 C 97.237 318.744,99.994 314.608,99.994 300.000 C 99.994 285.392,97.237 281.256,87.500 281.256 C 84.587 281.256,82.383 281.756,80.657 282.808 M193.157 282.808 C 188.293 285.774,187.506 288.169,187.506 300.000 C 187.506 314.608,190.263 318.744,200.000 318.744 C 209.737 318.744,212.494 314.608,212.494 300.000 C 212.494 285.392,209.737 281.256,200.000 281.256 C 197.087 281.256,194.883 281.756,193.157 282.808 M305.657 282.808 C 300.793 285.774,300.006 288.169,300.006 300.000 C 300.006 314.608,302.763 318.744,312.500 318.744 C 322.237 318.744,324.994 314.608,324.994 300.000 C 324.994 285.392,322.237 281.256,312.500 281.256 C 309.587 281.256,307.383 281.756,305.657 282.808 M118.157 289.058 C 114.345 291.383,112.506 294.943,112.506 300.000 C 112.506 305.057,114.345 308.617,118.157 310.942 C 122.075 313.331,165.425 313.331,169.343 310.942 C 177.051 306.242,177.051 293.758,169.343 289.058 C 165.425 286.669,122.075 286.669,118.157 289.058 M230.657 289.058 C 222.949 293.758,222.949 306.242,230.657 310.942 C 234.575 313.331,277.925 313.331,281.843 310.942 C 289.551 306.242,289.551 293.758,281.843 289.058 C 277.925 286.669,234.575 286.669,230.657 289.058 M136.907 326.558 C 132.043 329.524,131.256 331.919,131.256 343.750 C 131.256 358.358,134.013 362.494,143.750 362.494 C 153.487 362.494,156.244 358.358,156.244 343.750 C 156.244 329.142,153.487 325.006,143.750 325.006 C 140.837 325.006,138.633 325.506,136.907 326.558 M249.407 326.558 C 244.543 329.524,243.756 331.919,243.756 343.750 C 243.756 358.358,246.513 362.494,256.250 362.494 C 265.987 362.494,268.744 358.358,268.744 343.750 C 268.744 329.142,265.987 325.006,256.250 325.006 C 253.337 325.006,251.133 325.506,249.407 326.558 M61.907 332.808 C 54.199 337.508,54.199 349.992,61.907 354.692 C 65.825 357.081,109.175 357.081,113.093 354.692 C 120.801 349.992,120.801 337.508,113.093 332.808 C 109.175 330.419,65.825 330.419,61.907 332.808 M174.407 332.808 C 170.595 335.133,168.756 338.693,168.756 343.750 C 168.756 348.807,170.595 352.367,174.407 354.692 C 178.325 357.081,221.675 357.081,225.593 354.692 C 233.301 349.992,233.301 337.508,225.593 332.808 C 221.675 330.419,178.325 330.419,174.407 332.808 M286.907 332.808 C 279.199 337.508,279.199 349.992,286.907 354.692 C 290.825 357.081,334.175 357.081,338.093 354.692 C 345.801 349.992,345.801 337.508,338.093 332.808 C 334.175 330.419,290.825 330.419,286.907 332.808 " stroke="none" fill="#ffffff" fill-rule="evenodd"></path></g></svg>